<svg width="86" height="83" viewBox="0 0 86 83" fill="none" xmlns="http://www.w3.org/2000/svg">
<path d="M51.2083 35.7598L38.4926 50.8164L33.043 44.7937" stroke="#4D9348" stroke-width="3" stroke-linecap="round" stroke-linejoin="round"/>
<path d="M42.126 12.0391C59.2285 12.0393 73.0947 25.9158 73.0947 43.0361C73.0947 60.1565 59.2285 74.033 42.126 74.0332C25.0233 74.0332 11.1562 60.1566 11.1562 43.0361C11.1563 25.9157 25.0233 12.0391 42.126 12.0391Z" stroke="#4D9348" stroke-width="3"/>
<ellipse opacity="0.3" cx="75.4752" cy="0.878301" rx="0.87755" ry="0.878301" fill="#4D9348"/>
<circle opacity="0.3" cx="75.9079" cy="11.4186" r="0.439151" fill="#4D9348"/>
<circle opacity="0.35" cx="13.6032" cy="71.5817" r="0.439151" fill="#4D9348"/>
<ellipse opacity="0.34" cx="64.7193" cy="9.44132" rx="1.53571" ry="1.53703" fill="#4D9348"/>
<ellipse opacity="0.36" cx="8.33586" cy="63.2383" rx="1.31632" ry="1.31745" fill="#4D9348"/>
<ellipse opacity="0.3" cx="0.87755" cy="70.264" rx="0.87755" ry="0.878301" fill="#4D9348"/>
<ellipse opacity="0.3" cx="52.2135" cy="4.391" rx="0.87755" ry="0.878301" fill="#4D9348"/>
<circle opacity="0.3" cx="24.5759" cy="2.19599" r="0.439151" fill="#4D9348"/>
<circle opacity="0.3" cx="25.0173" cy="82.5612" r="0.439151" fill="#4D9348"/>
<circle opacity="0.3" cx="85.5602" cy="27.6667" r="0.439151" fill="#4D9348"/>
<circle opacity="0.48" cx="7.90009" cy="23.7145" r="0.439151" fill="#4D9348"/>
<circle opacity="0.42" cx="75.9079" cy="67.1911" r="0.439151" fill="#4D9348"/>
</svg>
